<svg xmlns="http://www.w3.org/2000/svg" viewBox="378.8 415.1 135 41.5" x="0px" y="0px">
    <symbol id="rga" viewBox="378.8 415.1 135 41.5">
        <g>
            <g>
                <path d="M403,428.2c0,4-2.1,5.6-6,5.6h-9.6v-11.1h9.6C400.9,422.8,403,424.4,403,428.2 M405.5,437L405.5,437
                    c4.4-1.9,6.3-5.4,6.3-10c0-6-4.6-11-11.6-11h-21.4v39.7h8.7v-15.5h8.7c4.4,0,6,1.8,6.6,6c0.5,3.2,0.4,7.1,1.4,9.4h8.7
                    c-1.5-2.3-1.5-6.9-1.7-9.4C411,442.2,409.7,438.1,405.5,437 M421.5,455.6l14.8-39.7H430l-14.8,39.7H421.5z M466.8,455.6h5.6v-21.4
                    h-16.6v6.5h8.7c-0.5,5.5-3.8,8.6-9.4,8.6c-7.9,0-10.7-6.7-10.7-13.3c0-6.9,3-13.6,10.7-13.6c4,0,7.4,2.3,8.4,6.7h8.4
                    c-1-9-8.6-14-16.7-14c-12.3,0-19.5,9.2-19.5,20.9c0,11.5,7.2,20.6,19.5,20.6c3.8,0,7.9-1.5,10.9-5.4L466.8,455.6z M499.5,440.3
                    h-10.3l5.2-14.6h0.1L499.5,440.3z M513.8,455.6L499,415.9h-9L475,455.6h8.8l3.1-8.8h14.8l3,8.8H513.8z"/>
            </g>
        </g>
    </symbol>
</svg>
